<?xml version="1.0" encoding="UTF-8" standalone="no"?>
<svg width="25px" height="25px" viewBox="0 0 25 25" version="1.1" xmlns="http://www.w3.org/2000/svg" xmlns:xlink="http://www.w3.org/1999/xlink" xmlns:sketch="http://www.bohemiancoding.com/sketch/ns">
    <!-- Generator: Sketch 3.3.3 (12072) - http://www.bohemiancoding.com/sketch -->
    <title>apua</title>
    <desc>Created with Sketch.</desc>
    <defs></defs>
    <g id="Asiointikansio" stroke="none" stroke-width="1" fill="none" fill-rule="evenodd" sketch:type="MSPage">
        <g id="Specs/Asiointikansio-Viestielementit" sketch:type="MSArtboardGroup" transform="translate(-978.000000, -698.000000)">
            <g id="apua" sketch:type="MSLayerGroup" transform="translate(978.000000, 698.000000)">
                <circle id="Oval-19" fill="#333333" sketch:type="MSShapeGroup" cx="12.5" cy="12.5" r="11.5"></circle>
                <g id="ic_help_black_24px" fill="#FFD100" sketch:type="MSShapeGroup">
                    <path d="M0,12.5 C0,19.4 5.6,25 12.5,25 C19.4,25 25,19.4 25,12.5 C25,5.6 19.4,0 12.5,0 C5.6,0 0,5.6 0,12.5 Z M13.75,21.25 L11.25,21.25 L11.25,18.75 L13.75,18.75 L13.75,21.25 L13.75,21.25 Z M15.2125,12.7125 C14.3125,13.625 13.75,14.375 13.75,16.25 L11.25,16.25 L11.25,15.625 C11.25,14.25 11.8125,13 12.7125,12.0875 L14.2625,10.5125 C14.725,10.0625 15,9.4375 15,8.75 C15,7.375 13.875,6.25 12.5,6.25 C11.125,6.25 10,7.375 10,8.75 L7.5,8.75 C7.5,5.9875 9.7375,3.75 12.5,3.75 C15.2625,3.75 17.5,5.9875 17.5,8.75 C17.5,9.85 17.05,10.85 16.3375,11.5625 L15.2125,12.7125 Z" id="Shape"></path>
                </g>
            </g>
        </g>
    </g>
</svg>