<?xml version="1.0" encoding="UTF-8" standalone="no"?>
<svg width="25px" height="28px" viewBox="0 0 25 28" version="1.1" xmlns="http://www.w3.org/2000/svg" xmlns:xlink="http://www.w3.org/1999/xlink" xmlns:sketch="http://www.bohemiancoding.com/sketch/ns">
    <!-- Generator: Sketch 3.3.3 (12072) - http://www.bohemiancoding.com/sketch -->
    <title>kalenterivaraus</title>
    <desc>Created with Sketch.</desc>
    <defs></defs>
    <g id="Asiointikansio" stroke="none" stroke-width="1" fill="none" fill-rule="evenodd" sketch:type="MSPage">
        <g id="Specs/Asiointikansio-Viestielementit" sketch:type="MSArtboardGroup" transform="translate(-978.000000, -374.000000)" fill="#3C8FDE">
            <g id="kalenterivaraus" sketch:type="MSLayerGroup" transform="translate(978.000000, 374.000000)">
                <path d="M18.7916667,14.084 L17.3194444,12.6 L10.5416667,19.432 L7.59722222,16.464 L6.125,17.948 L10.5416667,22.4 L18.7916667,14.084 L18.7916667,14.084 Z M22.2222222,2.8 L20.8333333,2.8 L20.8333333,0 L18.0555556,0 L18.0555556,2.8 L6.94444444,2.8 L6.94444444,0 L4.16666667,0 L4.16666667,2.8 L2.77777778,2.8 C1.23611111,2.8 0.0138888889,4.06 0.0138888889,5.6 L0,25.2 C0,26.74 1.23611111,28 2.77777778,28 L22.2222222,28 C23.75,28 25,26.74 25,25.2 L25,5.6 C25,4.06 23.75,2.8 22.2222222,2.8 L22.2222222,2.8 Z M22.2222222,25.2 L2.77777778,25.2 L2.77777778,9.8 L22.2222222,9.8 L22.2222222,25.2 L22.2222222,25.2 Z" id="Shape-Copy-11" sketch:type="MSShapeGroup"></path>
            </g>
        </g>
    </g>
</svg>