<?xml version="1.0" encoding="UTF-8" standalone="no"?>
<svg width="13px" height="15px" viewBox="0 0 13 15" version="1.1" xmlns="http://www.w3.org/2000/svg" xmlns:xlink="http://www.w3.org/1999/xlink" xmlns:sketch="http://www.bohemiancoding.com/sketch/ns">
    <!-- Generator: Sketch 3.3.3 (12072) - http://www.bohemiancoding.com/sketch -->
    <title>kalenterivaraus-pieni</title>
    <desc>Created with Sketch.</desc>
    <defs></defs>
    <g id="Asiointikansio" stroke="none" stroke-width="1" fill="none" fill-rule="evenodd" sketch:type="MSPage">
        <g id="Specs/Asiointikansio-Viestielementit" sketch:type="MSArtboardGroup" transform="translate(-978.000000, -582.000000)" fill="#3C8FDE">
            <g id="kalenterivaraus-pieni" sketch:type="MSLayerGroup" transform="translate(978.000000, 582.000000)">
                <path d="M9.77166667,7.545 L9.00611111,6.75 L5.48166667,10.41 L3.95055556,8.82 L3.185,9.615 L5.48166667,12 L9.77166667,7.545 L9.77166667,7.545 Z M11.5555556,1.5 L10.8333333,1.5 L10.8333333,0 L9.38888889,0 L9.38888889,1.5 L3.61111111,1.5 L3.61111111,0 L2.16666667,0 L2.16666667,1.5 L1.44444444,1.5 C0.642777778,1.5 0.00722222222,2.175 0.00722222222,3 L0,13.5 C0,14.325 0.642777778,15 1.44444444,15 L11.5555556,15 C12.35,15 13,14.325 13,13.5 L13,3 C13,2.175 12.35,1.5 11.5555556,1.5 L11.5555556,1.5 Z M11.5555556,13.5 L1.44444444,13.5 L1.44444444,5.25 L11.5555556,5.25 L11.5555556,13.5 L11.5555556,13.5 Z" id="Shape-Copy-13" sketch:type="MSShapeGroup"></path>
            </g>
        </g>
    </g>
</svg>