<?xml version="1.0" encoding="UTF-8" standalone="no"?>
<svg width="15px" height="16px" viewBox="0 0 15 16" version="1.1" xmlns="http://www.w3.org/2000/svg" xmlns:xlink="http://www.w3.org/1999/xlink" xmlns:sketch="http://www.bohemiancoding.com/sketch/ns">
    <!-- Generator: Sketch 3.3.3 (12072) - http://www.bohemiancoding.com/sketch -->
    <title>kalenterivaraus-uusi-pieni</title>
    <desc>Created with Sketch.</desc>
    <defs></defs>
    <g id="Asiointikansio" stroke="none" stroke-width="1" fill="none" fill-rule="evenodd" sketch:type="MSPage">
        <g id="Specs/Asiointikansio-Viestielementit" sketch:type="MSArtboardGroup" transform="translate(-1036.000000, -581.000000)">
            <g id="kalenterivaraus-uusi-pieni" sketch:type="MSLayerGroup" transform="translate(1036.000000, 581.000000)">
                <path d="M7,10.25 L7,8 L6,8 L6,10.25 L3.75,10.25 L3.75,11.25 L6,11.25 L6,13.5 L7,13.5 L7,11.25 L9.25,11.25 L9.25,10.25 L7,10.25 Z" id="Rectangle-449" fill="#3C8FDE" sketch:type="MSShapeGroup"></path>
                <g id="Shape-+-Oval-1-Copy-3" transform="translate(0.000000, 1.000000)" fill="#3C8FDE" sketch:type="MSShapeGroup">
                    <path d="M9.38888889,0.44 L9.38888889,1.896 L3.61111111,1.896 L3.61111111,0.44 L2.16666667,0.44 L2.16666667,1.896 L1.44444444,1.896 C0.642777778,1.896 0.00722222222,2.5512 0.00722222222,3.352 L0,13.544 C0,14.3448 0.642777778,15 1.44444444,15 L11.5555556,15 C12.35,15 13,14.3448 13,13.544 L13,3.352 C13,2.5512 12.35,1.896 11.5555556,1.896 L10.8333333,1.896 L10.8333333,0.44 L9.38888889,0.44 L9.38888889,0.44 Z M1.44444444,13.544 L1.44444444,5.536 L11.5555556,5.536 L11.5555556,13.544 L1.44444444,13.544 Z" id="Shape-Copy-4"></path>
                </g>
                <circle id="Oval-328" fill="#FF4F00" sketch:type="MSShapeGroup" cx="12" cy="3" r="3"></circle>
            </g>
        </g>
    </g>
</svg>