<?xml version="1.0" encoding="UTF-8" standalone="no"?>
<svg width="30px" height="31px" viewBox="0 0 30 31" version="1.1" xmlns="http://www.w3.org/2000/svg" xmlns:xlink="http://www.w3.org/1999/xlink" xmlns:sketch="http://www.bohemiancoding.com/sketch/ns">
    <!-- Generator: Sketch 3.3.3 (12072) - http://www.bohemiancoding.com/sketch -->
    <title>kalenterivaraus-uusi</title>
    <desc>Created with Sketch.</desc>
    <defs></defs>
    <g id="Asiointikansio" stroke="none" stroke-width="1" fill="none" fill-rule="evenodd" sketch:type="MSPage">
        <g id="Specs/Asiointikansio-Viestielementit" sketch:type="MSArtboardGroup" transform="translate(-1036.000000, -371.000000)">
            <g id="kalenterivaraus-uusi" sketch:type="MSLayerGroup" transform="translate(1036.000000, 371.000000)">
                <g id="Rectangle-449-Copy-2" transform="translate(8.000000, 15.000000)" fill="#3C8FDE" sketch:type="MSShapeGroup">
                    <path d="M6,4 L6,0 L4,0 L4,4 L0,4 L0,6 L4,6 L4,10 L6,10 L6,6 L10,6 L10,4 L6,4 Z"></path>
                </g>
                <g id="Shape-Copy-8-+-Oval-1-Copy-3" sketch:type="MSShapeGroup">
                    <path d="M18.0555556,3 L18.0555556,5.8 L6.94444444,5.8 L6.94444444,3 L4.16666667,3 L4.16666667,5.8 L2.77777778,5.8 C1.23611111,5.8 0.0138888889,7.06 0.0138888889,8.6 L0,28.2 C0,29.74 1.23611111,31 2.77777778,31 L22.2222222,31 C23.75,31 25,29.74 25,28.2 L25,8.6 C25,7.06 23.75,5.8 22.2222222,5.8 L20.8333333,5.8 L20.8333333,3 L18.0555556,3 L18.0555556,3 Z M2.77777778,28.2 L2.77777778,12.8 L22.2222222,12.8 L22.2222222,28.2 L2.77777778,28.2 Z" id="Shape-Copy-8" fill="#3C8FDE"></path>
                    <circle id="Oval-1-Copy-3" fill="#FF4F00" cx="24.5" cy="5.5" r="5.5"></circle>
                </g>
            </g>
        </g>
    </g>
</svg>