<?xml version="1.0" encoding="UTF-8" standalone="no"?>
<svg width="24px" height="20px" viewBox="0 0 24 20" version="1.1" xmlns="http://www.w3.org/2000/svg" xmlns:xlink="http://www.w3.org/1999/xlink" xmlns:sketch="http://www.bohemiancoding.com/sketch/ns">
    <!-- Generator: Sketch 3.3.3 (12072) - http://www.bohemiancoding.com/sketch -->
    <title>kansio-7</title>
    <desc>Created with Sketch.</desc>
    <defs></defs>
    <g id="Symbols" stroke="none" stroke-width="1" fill="none" fill-rule="evenodd" sketch:type="MSPage">
        <g id="/Specs/Ikonit" sketch:type="MSArtboardGroup" transform="translate(-413.000000, -795.000000)">
            <g id="kansio-7" sketch:type="MSLayerGroup" transform="translate(411.000000, 791.000000)">
                <path d="M0,0 L24,0 L24,24 L0,24 L0,0 Z" id="Shape" sketch:type="MSShapeGroup"></path>
                <path d="M4,4 C2.9,4 2.01,4.9 2.01,6 L2,18 C2,19.1 2.9,20 4,20 L20,20 C21.1,20 22,19.1 22,18 L22,8 C22,6.9 21.1,6 20,6 L10,6 L8,4 L4,4 Z" id="akansio-0" fill="#FFFFFF" sketch:type="MSShapeGroup"></path>
                <rect id="Rectangle-410" fill="#FF4F00" sketch:type="MSShapeGroup" x="13" y="11" width="13" height="13" rx="1"></rect>
                <path d="M17.3157143,13 L17.3157143,14.3242857 L20.9671429,14.3242857 L17.65,22 L19.2185714,22 L23.05,13 L17.3157143,13 Z" id="7" fill="#FFFFFF" sketch:type="MSShapeGroup"></path>
            </g>
        </g>
    </g>
</svg>