<?xml version="1.0" encoding="UTF-8" standalone="no"?>
<svg width="24px" height="20px" viewBox="0 0 24 20" version="1.1" xmlns="http://www.w3.org/2000/svg" xmlns:xlink="http://www.w3.org/1999/xlink" xmlns:sketch="http://www.bohemiancoding.com/sketch/ns">
    <!-- Generator: Sketch 3.3.3 (12072) - http://www.bohemiancoding.com/sketch -->
    <title>kansio-9plus</title>
    <desc>Created with Sketch.</desc>
    <defs></defs>
    <g id="Symbols" stroke="none" stroke-width="1" fill="none" fill-rule="evenodd" sketch:type="MSPage">
        <g id="/Specs/Ikonit" sketch:type="MSArtboardGroup" transform="translate(-503.000000, -795.000000)">
            <g id="kansio-9plus" sketch:type="MSLayerGroup" transform="translate(501.000000, 791.000000)">
                <path d="M0,0 L24,0 L24,24 L0,24 L0,0 Z" id="Shape" sketch:type="MSShapeGroup"></path>
                <path d="M4,4 C2.9,4 2.01,4.9 2.01,6 L2,18 C2,19.1 2.9,20 4,20 L20,20 C21.1,20 22,19.1 22,18 L22,8 C22,6.9 21.1,6 20,6 L10,6 L8,4 L4,4 Z" id="akansio-0" fill="#FFFFFF" sketch:type="MSShapeGroup"></path>
                <rect id="Rectangle-410" fill="#FF4F00" sketch:type="MSShapeGroup" x="9" y="11" width="17" height="13" rx="1"></rect>
                <path d="M14.5875,13.1 C12.7125,13.1 11.5,14.5125 11.5,16.1625 C11.5,17.9375 12.7875,19.225 14.775,19.225 L12.9375,22 L14.5875,22 L17.0875,17.975 C17.4125,17.45 17.65,16.8375 17.65,16.1625 C17.65,14.5125 16.4375,13.1 14.5875,13.1 L14.5875,13.1 Z M14.5875,14.3875 C15.575,14.3875 16.2125,15.2 16.2125,16.1625 C16.2125,17.125 15.575,17.9375 14.5875,17.9375 C13.5875,17.9375 12.9375,17.125 12.9375,16.1625 C12.9375,15.2 13.5875,14.3875 14.5875,14.3875 L14.5875,14.3875 Z M22.4125,20.9625 L22.4125,19.05 L24.2625,19.05 L24.2625,17.8375 L22.4125,17.8375 L22.4125,15.9125 L21.05,15.9125 L21.05,17.8375 L19.2125,17.8375 L19.2125,19.05 L21.05,19.05 L21.05,20.9625 L22.4125,20.9625 Z" id="9+" fill="#FFFFFF" sketch:type="MSShapeGroup"></path>
            </g>
        </g>
    </g>
</svg>