<?xml version="1.0" encoding="UTF-8" standalone="no"?>
<svg width="24px" height="20px" viewBox="0 0 24 20" version="1.1" xmlns="http://www.w3.org/2000/svg" xmlns:xlink="http://www.w3.org/1999/xlink" xmlns:sketch="http://www.bohemiancoding.com/sketch/ns">
    <!-- Generator: Sketch 3.3.3 (12072) - http://www.bohemiancoding.com/sketch -->
    <title>kansio-2</title>
    <desc>Created with Sketch.</desc>
    <defs></defs>
    <g id="Symbols" stroke="none" stroke-width="1" fill="none" fill-rule="evenodd" sketch:type="MSPage">
        <g id="/Specs/Ikonit" sketch:type="MSArtboardGroup" transform="translate(-263.000000, -795.000000)">
            <g id="kansio-2" sketch:type="MSLayerGroup" transform="translate(261.000000, 791.000000)">
                <path d="M0,0 L24,0 L24,24 L0,24 L0,0 Z" id="Shape" sketch:type="MSShapeGroup"></path>
                <path d="M4,4 C2.9,4 2.01,4.9 2.01,6 L2,18 C2,19.1 2.9,20 4,20 L20,20 C21.1,20 22,19.1 22,18 L22,8 C22,6.9 21.1,6 20,6 L10,6 L8,4 L4,4 Z" id="akansio-0" fill="#FFFFFF" sketch:type="MSShapeGroup"></path>
                <rect id="Rectangle-410" fill="#FF4F00" sketch:type="MSShapeGroup" x="13" y="11" width="13" height="13" rx="1"></rect>
                <path d="M16.5875,22 L22.0375,22 L22.0375,20.7125 L18.2375,20.7125 C18.2375,19.875 18.4625,19.55 19.7375,18.6375 C20.3,18.2375 22.0875,17.3375 22.0875,15.725 C22.0875,13.975 20.9125,13.1 19.4,13.1 C17.9375,13.1 16.5875,14.0625 16.5875,15.8375 L18.025,15.8375 C18.025,14.825 18.6375,14.3875 19.3875,14.3875 C20.1,14.3875 20.65,14.7375 20.65,15.5875 C20.65,16.65 19.6875,17.1125 18.925,17.5875 C17.5875,18.4375 16.5875,19.225 16.5875,22 L16.5875,22 Z" id="2" fill="#FFFFFF" sketch:type="MSShapeGroup"></path>
            </g>
        </g>
    </g>
</svg>