<?xml version="1.0" encoding="UTF-8" standalone="no"?>
<svg width="24px" height="20px" viewBox="0 0 24 20" version="1.1" xmlns="http://www.w3.org/2000/svg" xmlns:xlink="http://www.w3.org/1999/xlink" xmlns:sketch="http://www.bohemiancoding.com/sketch/ns">
    <!-- Generator: Sketch 3.3.3 (12072) - http://www.bohemiancoding.com/sketch -->
    <title>kansio-9</title>
    <desc>Created with Sketch.</desc>
    <defs></defs>
    <g id="Symbols" stroke="none" stroke-width="1" fill="none" fill-rule="evenodd" sketch:type="MSPage">
        <g id="/Specs/Ikonit" sketch:type="MSArtboardGroup" transform="translate(-473.000000, -795.000000)">
            <g id="kansio-9" sketch:type="MSLayerGroup" transform="translate(471.000000, 791.000000)">
                <path d="M0,0 L24,0 L24,24 L0,24 L0,0 Z" id="Shape" sketch:type="MSShapeGroup"></path>
                <path d="M4,4 C2.9,4 2.01,4.9 2.01,6 L2,18 C2,19.1 2.9,20 4,20 L20,20 C21.1,20 22,19.1 22,18 L22,8 C22,6.9 21.1,6 20,6 L10,6 L8,4 L4,4 Z" id="akansio-0" fill="#FFFFFF" sketch:type="MSShapeGroup"></path>
                <rect id="Rectangle-410" fill="#FF4F00" sketch:type="MSShapeGroup" x="13" y="11" width="13" height="13" rx="1"></rect>
                <path d="M19.5478933,13 C17.6518258,13 16.4257022,14.4283708 16.4257022,16.0969101 C16.4257022,17.8918539 17.7276685,19.1938202 19.7375,19.1938202 L17.8793539,22 L19.5478933,22 L22.0759831,17.9297753 C22.4046348,17.3988764 22.6448034,16.7794944 22.6448034,16.0969101 C22.6448034,14.4283708 21.4186798,13 19.5478933,13 L19.5478933,13 Z M19.5478933,14.3019663 C20.5464888,14.3019663 21.1911517,15.1235955 21.1911517,16.0969101 C21.1911517,17.0702247 20.5464888,17.8918539 19.5478933,17.8918539 C18.5366573,17.8918539 17.8793539,17.0702247 17.8793539,16.0969101 C17.8793539,15.1235955 18.5366573,14.3019663 19.5478933,14.3019663 L19.5478933,14.3019663 Z" id="9" fill="#FFFFFF" sketch:type="MSShapeGroup"></path>
            </g>
        </g>
    </g>
</svg>