<?xml version="1.0" encoding="UTF-8" standalone="no"?>
<svg width="24px" height="20px" viewBox="0 0 24 20" version="1.1" xmlns="http://www.w3.org/2000/svg" xmlns:xlink="http://www.w3.org/1999/xlink" xmlns:sketch="http://www.bohemiancoding.com/sketch/ns">
    <!-- Generator: Sketch 3.3.3 (12072) - http://www.bohemiancoding.com/sketch -->
    <title>kansio-8</title>
    <desc>Created with Sketch.</desc>
    <defs></defs>
    <g id="Symbols" stroke="none" stroke-width="1" fill="none" fill-rule="evenodd" sketch:type="MSPage">
        <g id="/Specs/Ikonit" sketch:type="MSArtboardGroup" transform="translate(-443.000000, -795.000000)">
            <g id="kansio-8" sketch:type="MSLayerGroup" transform="translate(441.000000, 791.000000)">
                <path d="M0,0 L24,0 L24,24 L0,24 L0,0 Z" id="Shape" sketch:type="MSShapeGroup"></path>
                <path d="M4,4 C2.9,4 2.01,4.9 2.01,6 L2,18 C2,19.1 2.9,20 4,20 L20,20 C21.1,20 22,19.1 22,18 L22,8 C22,6.9 21.1,6 20,6 L10,6 L8,4 L4,4 Z" id="akansio-0" fill="#FFFFFF" sketch:type="MSShapeGroup"></path>
                <rect id="Rectangle-410" fill="#FF4F00" sketch:type="MSShapeGroup" x="13" y="11" width="13" height="13" rx="1"></rect>
                <path d="M19.6875,22.15 C21.5625,22.15 22.675,20.875 22.675,19.475 C22.675,18.6625 22.2875,17.7125 21.4,17.4 C22.1875,17.05 22.4625,16.2875 22.4625,15.5875 C22.4625,14.2625 21.425,13.1 19.6875,13.1 C17.9375,13.1 16.9,14.2375 16.9,15.5875 C16.9,16.2875 17.175,17.05 17.9625,17.4 C17.075,17.7125 16.6875,18.6375 16.6875,19.475 C16.6875,20.925 17.8125,22.15 19.6875,22.15 L19.6875,22.15 Z M19.6875,16.925 C18.8375,16.925 18.3375,16.3375 18.3375,15.65 C18.3375,14.975 18.8375,14.3875 19.6875,14.3875 C20.525,14.3875 21.025,14.9875 21.025,15.65 C21.025,16.325 20.525,16.925 19.6875,16.925 L19.6875,16.925 Z M19.6875,20.8625 C18.7125,20.8625 18.125,20.225 18.125,19.475 C18.125,18.7375 18.675,18.075 19.6875,18.075 C20.6875,18.075 21.2375,18.7625 21.2375,19.475 C21.2375,20.2 20.6625,20.8625 19.6875,20.8625 L19.6875,20.8625 Z" id="8" fill="#FFFFFF" sketch:type="MSShapeGroup"></path>
            </g>
        </g>
    </g>
</svg>