<?xml version="1.0" encoding="UTF-8" standalone="no"?>
<svg width="24px" height="20px" viewBox="0 0 24 20" version="1.1" xmlns="http://www.w3.org/2000/svg" xmlns:xlink="http://www.w3.org/1999/xlink" xmlns:sketch="http://www.bohemiancoding.com/sketch/ns">
    <!-- Generator: Sketch 3.3.3 (12072) - http://www.bohemiancoding.com/sketch -->
    <title>kansio-5</title>
    <desc>Created with Sketch.</desc>
    <defs></defs>
    <g id="Symbols" stroke="none" stroke-width="1" fill="none" fill-rule="evenodd" sketch:type="MSPage">
        <g id="/Specs/Ikonit" sketch:type="MSArtboardGroup" transform="translate(-353.000000, -795.000000)">
            <g id="kansio-5" sketch:type="MSLayerGroup" transform="translate(351.000000, 791.000000)">
                <path d="M0,0 L24,0 L24,24 L0,24 L0,0 Z" id="Shape" sketch:type="MSShapeGroup"></path>
                <path d="M4,4 C2.9,4 2.01,4.9 2.01,6 L2,18 C2,19.1 2.9,20 4,20 L20,20 C21.1,20 22,19.1 22,18 L22,8 C22,6.9 21.1,6 20,6 L10,6 L8,4 L4,4 Z" id="akansio-0" fill="#FFFFFF" sketch:type="MSShapeGroup"></path>
                <rect id="Rectangle-410" fill="#FF4F00" sketch:type="MSShapeGroup" x="13" y="11" width="13" height="13" rx="1"></rect>
                <path d="M16.7639045,18.1661517 L18.2417837,18.1661517 C18.5759129,17.4850421 19.102809,17.1766152 19.7582163,17.1766152 C20.7991573,17.1766152 21.4545646,18.0119382 21.4545646,19.0014747 C21.4545646,19.9910112 20.7991573,20.8263343 19.7582163,20.8263343 C18.7429775,20.8263343 18.0875702,19.9910112 18.0875702,19.0014747 L16.609691,19.0014747 C16.609691,20.697823 17.85625,22.15 19.7582163,22.15 C21.6858848,22.15 22.9324438,20.697823 22.9324438,19.0014747 C22.9324438,17.3051264 21.9429073,15.8658006 20.0152388,15.8658006 C19.411236,15.8658006 18.4602528,16.122823 18.0875702,16.8167837 L18.0875702,14.3236657 L22.225632,14.3236657 L22.225632,13 L16.7639045,13 L16.7639045,18.1661517 Z" id="5" fill="#FFFFFF" sketch:type="MSShapeGroup"></path>
            </g>
        </g>
    </g>
</svg>