<?xml version="1.0" encoding="UTF-8" standalone="no"?>
<svg width="24px" height="20px" viewBox="0 0 24 20" version="1.1" xmlns="http://www.w3.org/2000/svg" xmlns:xlink="http://www.w3.org/1999/xlink" xmlns:sketch="http://www.bohemiancoding.com/sketch/ns">
    <!-- Generator: Sketch 3.3.3 (12072) - http://www.bohemiancoding.com/sketch -->
    <title>kansio-6</title>
    <desc>Created with Sketch.</desc>
    <defs></defs>
    <g id="Symbols" stroke="none" stroke-width="1" fill="none" fill-rule="evenodd" sketch:type="MSPage">
        <g id="/Specs/Ikonit" sketch:type="MSArtboardGroup" transform="translate(-383.000000, -795.000000)">
            <g id="kansio-6" sketch:type="MSLayerGroup" transform="translate(381.000000, 791.000000)">
                <path d="M0,0 L24,0 L24,24 L0,24 L0,0 Z" id="Shape" sketch:type="MSShapeGroup"></path>
                <path d="M4,4 C2.9,4 2.01,4.9 2.01,6 L2,18 C2,19.1 2.9,20 4,20 L20,20 C21.1,20 22,19.1 22,18 L22,8 C22,6.9 21.1,6 20,6 L10,6 L8,4 L4,4 Z" id="akansio-0" fill="#FFFFFF" sketch:type="MSShapeGroup"></path>
                <rect id="Rectangle-410" fill="#FF4F00" sketch:type="MSShapeGroup" x="13" y="11" width="13" height="13" rx="1"></rect>
                <path d="M19.4601237,22.15 C21.3745223,22.15 22.6125,20.7078198 22.6125,19.0231491 C22.6125,17.3384783 21.3745223,15.8962981 19.4601237,15.8962981 C19.3963105,15.8962981 19.3324972,15.8962981 19.2686839,15.9090608 L21.1447945,13.0629883 L19.4601237,13.0629883 L16.8948297,17.1725638 C16.5630006,17.7085954 16.3332728,18.3467282 16.3332728,19.0231491 C16.3332728,20.7078198 17.5712505,22.15 19.4601237,22.15 L19.4601237,22.15 Z M19.4601237,20.8354463 C18.4518738,20.8354463 17.8009783,20.0058736 17.8009783,19.0231491 C17.8009783,18.0404245 18.4518738,17.2108518 19.4601237,17.2108518 C20.4811363,17.2108518 21.1447945,18.0404245 21.1447945,19.0231491 C21.1447945,20.0058736 20.4811363,20.8354463 19.4601237,20.8354463 L19.4601237,20.8354463 Z" id="6" fill="#FFFFFF" sketch:type="MSShapeGroup"></path>
            </g>
        </g>
    </g>
</svg>