<?xml version="1.0" encoding="UTF-8" standalone="no"?>
<svg width="15px" height="13px" viewBox="0 0 15 13" version="1.1" xmlns="http://www.w3.org/2000/svg" xmlns:xlink="http://www.w3.org/1999/xlink" xmlns:sketch="http://www.bohemiancoding.com/sketch/ns">
    <!-- Generator: Sketch 3.3.3 (12072) - http://www.bohemiancoding.com/sketch -->
    <title>kirje-uusi-pieni</title>
    <desc>Created with Sketch.</desc>
    <defs></defs>
    <g id="Asiointikansio" stroke="none" stroke-width="1" fill="none" fill-rule="evenodd" sketch:type="MSPage">
        <g id="Specs/Asiointikansio-Viestielementit" sketch:type="MSArtboardGroup" transform="translate(-1036.000000, -647.000000)">
            <g id="kirje-uusi-pieni" sketch:type="MSLayerGroup" transform="translate(1036.000000, 647.000000)">
                <path d="M11.7,2.6 L1.3,2.6 C0.585,2.6 0.0065,3.185 0.0065,3.9 L0,11.7 C0,12.415 0.585,13 1.3,13 L11.7,13 C12.415,13 13,12.415 13,11.7 L13,3.9 C13,3.185 12.415,2.6 11.7,2.6 L11.7,2.6 Z M11.7,5.2 L6.5,8.45 L1.3,5.2 L1.3,3.9 L6.5,7.15 L11.7,3.9 L11.7,5.2 L11.7,5.2 Z" id="Shape-Copy-14" fill="#3C8FDE" sketch:type="MSShapeGroup"></path>
                <circle id="Oval-328-Copy" fill="#FF4F00" sketch:type="MSShapeGroup" cx="12" cy="3" r="3"></circle>
            </g>
        </g>
    </g>
</svg>