<?xml version="1.0" encoding="UTF-8" standalone="no"?>
<svg width="18px" height="19px" viewBox="0 0 18 19" version="1.1" xmlns="http://www.w3.org/2000/svg" xmlns:xlink="http://www.w3.org/1999/xlink" xmlns:sketch="http://www.bohemiancoding.com/sketch/ns">
    <!-- Generator: Sketch 3.4.4 (17249) - http://www.bohemiancoding.com/sketch -->
    <title>logout</title>
    <desc>Created with Sketch.</desc>
    <defs></defs>
    <g id="Symbols" stroke="none" stroke-width="1" fill="none" fill-rule="evenodd" sketch:type="MSPage">
        <g id="/Specs/3Ikonit" sketch:type="MSArtboardGroup" transform="translate(-512.000000, -543.000000)" fill="#000000">
            <g id="Group" sketch:type="MSLayerGroup" transform="translate(210.000000, 302.000000)">
                <path d="M308.41,246.898069 L307,245.482625 L302,250.501931 L307,255.521236 L308.41,254.105792 L305.83,251.505792 L315.5,251.505792 L315.5,249.498069 L305.83,249.498069 L308.41,246.898069 L308.41,246.898069 Z M304,241.467181 C302.89,241.467181 302,242.370656 302,243.474903 L302,246.490347 L304,246.490347 L304,243.474903 L318,243.474903 L318,257.528958 L304,257.528958 L304,254.513514 L302,254.513514 L302,257.528958 C302,258.633205 302.89,259.53668 304,259.53668 L318,259.53668 C319.1,259.53668 320,258.633205 320,257.528958 L320,243.474903 C320,242.370656 319.1,241.467181 318,241.467181 L304,241.467181 Z" id="logout" sketch:type="MSShapeGroup" transform="translate(311.000000, 250.501931) rotate(-180.000000) translate(-311.000000, -250.501931) "></path>
            </g>
        </g>
    </g>
</svg>