<svg xmlns="http://www.w3.org/2000/svg" width="29.49" height="63.9" viewBox="0 0 29.49 63.9"><defs><style>.a{opacity:0.3;}.b{fill:#488cca;}.c{fill:#fff;}</style></defs><title>neuvola_icons</title><path class="a b" d="M23.12 23.44c-.14-3.49-2.4-6.38-5.38-6.87a5.53 5.53 0 0 0-.89-.07 7.14 7.14 0 0 0-6.4 4.86l-.28.73a10.76 10.76 0 0 0-6.86 17.65l-1.33 3.41a.57.57 0 0 0 .44.77l9.07 1.49 7.86 1.29 4.16.68h.09a.57.57 0 0 0 .57-.6z"/><path class="b" d="M15.43 63.9a4.68 4.68 0 0 1-4.68-4.68V46.05l-8.44-1.38a1.32 1.32 0 0 1-1-1.79l1.17-3A11.51 11.51 0 0 1 9.6 21.41l.12-.32a7.89 7.89 0 0 1 7.1-5.34 6.27 6.27 0 0 1 1 .08c3.33.55 5.85 3.74 6 7.58l1.06 23.35a1.32 1.32 0 0 1-1.32 1.38h-.21l-3.25-.57v11.64a4.68 4.68 0 0 1-4.67 4.69zM2.77 43.22l9.48 1.56v14.45a3.18 3.18 0 1 0 6.36 0v-13.4l4.82.79-1-23.14c-.12-3.14-2.12-5.73-4.75-6.16a4.73 4.73 0 0 0-.77-.06 6.39 6.39 0 0 0-5.7 4.38l-.45 1.15-.44.06a10 10 0 0 0-6.38 16.42l.29.34z"/><path class="b" d="M19.03 3.57a6 6 0 1 1-6 6 6 6 0 0 1 6-6m0-1.5a7.46 7.46 0 1 0 7.45 7.46 7.45 7.45 0 0 0-7.45-7.46z"/><path class="c" d="M11.94 4.18l10.31 5-1.33 7.72 7.79-.07s.23-8.57-1.07-11.09a9 9 0 0 0-4.62-4.22c-5.9-2.79-11.08 2.66-11.08 2.66z"/><path class="b" d="M20.03 17.69l1.38-8.05-10.72-5.23.7-.74c.06-.06 5.62-5.81 11.95-2.78a9.8 9.8 0 0 1 5 4.55C29.69 8.05 29.52 16 29.5 16.89v.72zm-6.76-13.7l9.82 4.79-1.27 7.39 6.16-.06c0-2.74-.09-8.25-1-10a8.22 8.22 0 0 0-4.28-3.89c-4.1-1.94-7.85.49-9.43 1.77z"/><path class="c" d="M10.03 35.74a2.8 2.8 0 0 1-.35-5.58l5-.63-.82-6.55a2.79 2.79 0 0 1 2.42-3.13h.36a2.81 2.81 0 0 1 2.78 2.45l1.18 9.27a2.8 2.8 0 0 1-2.38 3.13h-.11l-7.71 1z"/><path class="b" d="M16.67 20.48a2.16 2.16 0 0 1 2.14 1.88l1.17 9.34a2.15 2.15 0 0 1-1.78 2.39h-.31l-7.59 1h-.28a2.15 2.15 0 0 1-.27-4.28l4.4-.55 1.29-.16-.16-1.29-.74-5.91a2.14 2.14 0 0 1 1.85-2.4h.28m0-1.3h-.44a3.44 3.44 0 0 0-3 3.86l.74 5.91-4.4.55a3.45 3.45 0 0 0 .43 6.87h.44l7.82-1a3.45 3.45 0 0 0 3-3.86l-1.17-9.33a3.46 3.46 0 0 0-3.43-3z"/><path class="a b" d="M27.6 5.77a9 9 0 0 0-4.62-4.22C17.07-1.28 11.9 4.17 11.9 4.17l10.31 5-1.33 7.72 7.79-.07s.28-8.53-1.07-11.05z"/></svg>
