<svg xmlns="http://www.w3.org/2000/svg" width="40.02" height="39.88" viewBox="0 0 40.02 39.88"><defs><style>.a,.b{fill:#488cca;}.b{opacity:0.3;}.c{fill:#fff;}</style></defs><title>neuvola_icons</title><path class="a" d="M13.34 17.37a.83.83 0 1 1-.83-.83.83.83 0 0 1 .83.83zm0 0M18.34 17.37a.83.83 0 1 1-.83-.83.83.83 0 0 1 .83.83zm0 0M23.34 17.37a.83.83 0 1 1-.83-.83.83.83 0 0 1 .83.83zm0 0M8.34 22.37a.83.83 0 1 1-.83-.83.83.83 0 0 1 .83.83zm0 0M13.34 22.37a.83.83 0 1 1-.83-.83.83.83 0 0 1 .83.83zm0 0M18.34 22.37a.83.83 0 1 1-.83-.83.83.83 0 0 1 .83.83zm0 0M23.34 22.37a.83.83 0 1 1-.83-.83.83.83 0 0 1 .83.83zm0 0M33.35 22.37a.83.83 0 1 1-.83-.83.83.83 0 0 1 .83.83zm0 0M28.35 17.37a.83.83 0 1 1-.83-.83.83.83 0 0 1 .83.83zm0 0M33.35 17.37a.83.83 0 1 1-.83-.83.83.83 0 0 1 .83.83zm0 0M8.34 27.38a.83.83 0 1 1-.83-.83.83.83 0 0 1 .83.83zm0 0M13.34 27.38a.83.83 0 1 1-.83-.83.83.83 0 0 1 .83.83zm0 0M18.34 27.38a.83.83 0 1 1-.83-.83.83.83 0 0 1 .83.83zm0 0M23.34 27.38a.83.83 0 1 1-.83-.83.83.83 0 0 1 .83.83zm0 0M28.35 27.38a.83.83 0 1 1-.83-.83.83.83 0 0 1 .83.83zm0 0M33.35 27.38a.83.83 0 1 1-.83-.83.83.83 0 0 1 .83.83zm0 0M8.34 32.38a.83.83 0 1 1-.83-.83.83.83 0 0 1 .83.83zm0 0M13.34 32.38a.83.83 0 1 1-.83-.83.83.83 0 0 1 .83.83zm0 0M18.34 32.38a.83.83 0 1 1-.83-.83.83.83 0 0 1 .83.83zm0 0M23.34 32.38a.83.83 0 1 1-.83-.83.83.83 0 0 1 .83.83zm0 0M27.51 24.88a2.5 2.5 0 1 0-2.5-2.5 2.5 2.5 0 0 0 2.5 2.5zm0-3.33a.83.83 0 1 1-.83.83.83.83 0 0 1 .83-.83zm0 0"/><path class="a" d="M36.68 3.22H3.33A3.34 3.34 0 0 0 0 6.56v30a3.34 3.34 0 0 0 3.33 3.33h33.35a3.34 3.34 0 0 0 3.33-3.33v-30a3.34 3.34 0 0 0-3.33-3.33zm1.67 33.34a1.67 1.67 0 0 1-1.67 1.67H3.33a1.67 1.67 0 0 1-1.67-1.67v-25h36.69v25zm0-25H1.67v-5a1.67 1.67 0 0 1 1.67-1.67h33.35a1.67 1.67 0 0 1 1.67 1.67v5zm0-1.67"/><path class="b" d="M28.35 22.37a.83.83 0 1 1-.83-.83.83.83 0 0 1 .83.83zm0 0M38.35 12.87H1.67V6.56a1.67 1.67 0 0 1 1.67-1.67h33.35a1.67 1.67 0 0 1 1.67 1.67v6.32z"/><path class="c" d="M7.4 7.56A1.78 1.78 0 0 1 5.71 5.7v-3a1.7 1.7 0 1 1 3.39 0v3a1.78 1.78 0 0 1-1.7 1.86z"/><path class="a" d="M7.4 1.74a.92.92 0 0 1 .82 1v3a.84.84 0 1 1-1.65 0v-3a.92.92 0 0 1 .82-1m0-1.74a2.65 2.65 0 0 0-2.56 2.73v3a2.57 2.57 0 1 0 5.13 0v-3A2.65 2.65 0 0 0 7.4 0z"/><path class="c" d="M32.62 7.56a1.78 1.78 0 0 1-1.69-1.86v-3a1.7 1.7 0 1 1 3.39 0v3a1.78 1.78 0 0 1-1.7 1.86z"/><path class="a" d="M32.62 1.74a.92.92 0 0 1 .82 1v3a.84.84 0 1 1-1.65 0v-3a.92.92 0 0 1 .82-1m0-1.74a2.65 2.65 0 0 0-2.56 2.73v3a2.57 2.57 0 1 0 5.13 0v-3A2.65 2.65 0 0 0 32.62 0z"/><path class="c" d="M24.21 7.56a1.78 1.78 0 0 1-1.69-1.86v-3a1.7 1.7 0 1 1 3.39 0v3a1.78 1.78 0 0 1-1.7 1.86z"/><path class="a" d="M24.21 1.74a.92.92 0 0 1 .82 1v3a.84.84 0 1 1-1.65 0v-3a.92.92 0 0 1 .82-1m0-1.74a2.65 2.65 0 0 0-2.56 2.73v3a2.57 2.57 0 1 0 5.13 0v-3A2.65 2.65 0 0 0 24.21 0z"/><path class="c" d="M15.8 7.56a1.78 1.78 0 0 1-1.69-1.86v-3a1.7 1.7 0 1 1 3.39 0v3a1.78 1.78 0 0 1-1.7 1.86z"/><path class="a" d="M15.8 1.74a.92.92 0 0 1 .82 1v3a.84.84 0 1 1-1.65 0v-3a.92.92 0 0 1 .82-1m0-1.74a2.65 2.65 0 0 0-2.56 2.73v3a2.57 2.57 0 1 0 5.13 0v-3A2.65 2.65 0 0 0 15.8 0z"/></svg>
