<?xml version="1.0" encoding="UTF-8" standalone="no"?>
<svg width="18px" height="41px" viewBox="0 0 18 41" version="1.1" xmlns="http://www.w3.org/2000/svg" xmlns:xlink="http://www.w3.org/1999/xlink" xmlns:sketch="http://www.bohemiancoding.com/sketch/ns">
    <!-- Generator: Sketch 3.4 (15575) - http://www.bohemiancoding.com/sketch -->
    <title>pullo</title>
    <desc>Created with Sketch.</desc>
    <defs></defs>
    <g id="Äitiysneuvolan-esitiedot" stroke="none" stroke-width="1" fill="none" fill-rule="evenodd" sketch:type="MSPage">
        <g id="Desktop-HD-mid" sketch:type="MSArtboardGroup" transform="translate(-304.000000, -1199.000000)">
            <g id="pullo" sketch:type="MSLayerGroup" transform="translate(305.000000, 1200.000000)">
                <path d="M1.35269573e-12,22 C1.35269573e-12,22 -0.0852052122,15.5324097 5.98400865,12.3886108 C5.98400868,10.9867411 5.98400884,0.974365234 5.98400884,0.974365234 L10.0307904,0.974365234 C10.0307904,0.974365234 10.0307902,10.6951513 10.0307902,12.3886108 C16.0501994,15.5204468 16,22 16,22 L16,38.0000398 C16,38.5523026 15.5553691,39 14.9991283,39 L1.00087166,39 C0.448105505,39 1.16572564e-13,38.5452911 1.57309089e-13,38.0000398 L1.35269573e-12,22 Z" id="Rectangle-245" stroke="#3C8FDE" stroke-width="2" sketch:type="MSShapeGroup"></path>
                <rect id="Rectangle-246" fill-opacity="0.298771513" fill="#3C8FDE" sketch:type="MSShapeGroup" x="3" y="22" width="10" height="10"></rect>
                <rect id="Rectangle-246-Copy" fill-opacity="0.298771513" fill="#3C8FDE" sketch:type="MSShapeGroup" x="7" y="2" width="2" height="11"></rect>
            </g>
        </g>
    </g>
</svg>