<?xml version="1.0" encoding="UTF-8" standalone="no"?>
<svg width="28px" height="39px" viewBox="0 0 28 39" version="1.1" xmlns="http://www.w3.org/2000/svg" xmlns:xlink="http://www.w3.org/1999/xlink" xmlns:sketch="http://www.bohemiancoding.com/sketch/ns">
    <!-- Generator: Sketch 3.4 (15575) - http://www.bohemiancoding.com/sketch -->
    <title>savukeaski</title>
    <desc>Created with Sketch.</desc>
    <defs></defs>
    <g id="Äitiysneuvolan-esitiedot" stroke="none" stroke-width="1" fill="none" fill-rule="evenodd" sketch:type="MSPage">
        <g id="Desktop-HD-mid" sketch:type="MSArtboardGroup" transform="translate(-239.000000, -1141.000000)">
            <g id="savukeaski" sketch:type="MSLayerGroup" transform="translate(240.000000, 1142.000000)">
                <rect id="Rectangle-239-Copy" stroke="#3C8FDE" stroke-width="2" sketch:type="MSShapeGroup" x="5" y="0" width="4" height="11"></rect>
                <rect id="Rectangle-239-Copy-2" stroke="#3C8FDE" stroke-width="2" sketch:type="MSShapeGroup" x="9" y="4" width="4" height="7"></rect>
                <rect id="Rectangle-239-Copy-3" stroke="#3C8FDE" stroke-width="2" sketch:type="MSShapeGroup" x="13" y="4" width="4" height="7"></rect>
                <rect id="Rectangle-239-Copy-4" stroke="#3C8FDE" stroke-width="2" sketch:type="MSShapeGroup" x="17" y="4" width="4" height="7"></rect>
                <path d="M0,6.99631511 C0,6.44606547 0.444953624,6 1.00779407,6 L5.0378418,6 L5.0378418,11.0114746 L20.9401855,11.0114746 L20.9401855,6 L25.0040569,6 C25.5541011,6 26,6.43822575 26,6.99631511 L26,36.0036849 C26,36.5539345 25.5487213,37 24.9967004,37 L1.00329963,37 C0.449192547,37 0,36.5617743 0,36.0036849 L0,6.99631511 Z" id="Rectangle-239" stroke="#3C8FDE" stroke-width="2" sketch:type="MSShapeGroup"></path>
                <path d="M1,7 L3.97802734,7.0234375 L3.97802734,12 L22.0096436,12 L22.0096436,7.0234375 L25,7 L25,21 L13,16.9929199 L1,21 L1,7 Z" id="Rectangle-243" fill-opacity="0.300130208" fill="#3C8FDE" sketch:type="MSShapeGroup"></path>
            </g>
        </g>
    </g>
</svg>