<?xml version="1.0" encoding="UTF-8" standalone="no"?>
<svg width="27px" height="28px" viewBox="0 0 27 28" version="1.1" xmlns="http://www.w3.org/2000/svg" xmlns:xlink="http://www.w3.org/1999/xlink" xmlns:sketch="http://www.bohemiancoding.com/sketch/ns">
    <!-- Generator: Sketch 3.3.3 (12072) - http://www.bohemiancoding.com/sketch -->
    <title>tiedote-uusi</title>
    <desc>Created with Sketch.</desc>
    <defs></defs>
    <g id="Asiointikansio" stroke="none" stroke-width="1" fill="none" fill-rule="evenodd" sketch:type="MSPage">
        <g id="Specs/Asiointikansio-Viestielementit" sketch:type="MSArtboardGroup" transform="translate(-1036.000000, -298.000000)">
            <g id="tiedote-uusi" sketch:type="MSLayerGroup" transform="translate(1036.000000, 298.000000)">
                <path d="M12.5,3 C5.6,3 0,8.6 0,15.5 C0,22.4 5.6,28 12.5,28 C19.4,28 25,22.4 25,15.5 C25,8.6 19.4,3 12.5,3 L12.5,3 Z M13.75,21.75 L11.25,21.75 L11.25,14.25 L13.75,14.25 L13.75,21.75 L13.75,21.75 Z M13.75,11.75 L11.25,11.75 L11.25,9.25 L13.75,9.25 L13.75,11.75 L13.75,11.75 Z" id="Shape-Copy-12" fill="#FF8F1C" sketch:type="MSShapeGroup"></path>
                <circle id="Oval-1-Copy-6" fill="#FF4F00" sketch:type="MSShapeGroup" cx="21.5" cy="5.5" r="5.5"></circle>
            </g>
        </g>
    </g>
</svg>