<svg width="25" height="25" viewBox="0 0 25 25" xmlns="http://www.w3.org/2000/svg"><title>apua</title><g fill="none" fill-rule="evenodd"><circle fill="#333" cx="12.5" cy="12.5" r="11.5"/><path d="M0 12.5C0 19.4 5.6 25 12.5 25S25 19.4 25 12.5 19.4 0 12.5 0 0 5.6 0 12.5zm13.75 8.75h-2.5v-2.5h2.5v2.5zm1.463-8.537c-.9.912-1.463 1.662-1.463 3.537h-2.5v-.625c0-1.375.563-2.625 1.463-3.537l1.55-1.575c.462-.45.737-1.075.737-1.763 0-1.375-1.125-2.5-2.5-2.5S10 7.375 10 8.75H7.5c0-2.763 2.238-5 5-5s5 2.237 5 5c0 1.1-.45 2.1-1.163 2.813l-1.124 1.15z" fill="#FFD100"/></g></svg>