<svg width="30" height="31" viewBox="0 0 30 31" xmlns="http://www.w3.org/2000/svg"><title>kalenterivaraus-uusi</title><g fill="none" fill-rule="evenodd"><path d="M14 19v-4h-2v4H8v2h4v4h2v-4h4v-2h-4z" fill="#3C8FDE"/><g><path d="M18.056 3v2.8H6.944V3H4.167v2.8h-1.39C1.238 5.8.015 7.06.015 8.6L0 28.2C0 29.74 1.236 31 2.778 31h19.444C23.75 31 25 29.74 25 28.2V8.6c0-1.54-1.25-2.8-2.778-2.8h-1.39V3h-2.776zM2.778 28.2V12.8h19.444v15.4H2.778z" fill="#3C8FDE"/><circle fill="#FF4F00" cx="24.5" cy="5.5" r="5.5"/></g></g></svg>