<svg width="15" height="16" viewBox="0 0 15 16" xmlns="http://www.w3.org/2000/svg"><title>kalenterivaraus-uusi-pieni</title><g fill="none" fill-rule="evenodd"><path d="M7 10.25V8H6v2.25H3.75v1H6v2.25h1v-2.25h2.25v-1H7z" fill="#3C8FDE"/><path d="M9.39 1.44v1.456H3.61V1.44H2.168v1.456h-.723c-.8 0-1.437.655-1.437 1.456L0 14.544C0 15.344.643 16 1.444 16h10.112C12.35 16 13 15.345 13 14.544V4.352c0-.8-.65-1.456-1.444-1.456h-.723V1.44H9.39zM1.443 14.544V6.536h10.112v8.008H1.444z" fill="#3C8FDE"/><circle fill="#FF4F00" cx="12" cy="3" r="3"/></g></svg>