<svg width="24" height="20" viewBox="0 0 24 20" xmlns="http://www.w3.org/2000/svg"><title>kansio-3</title><g transform="translate(-2 -4)" fill="none" fill-rule="evenodd"><path d="M0 0h24v24H0V0z"/><path d="M4 4c-1.1 0-1.99.9-1.99 2L2 18c0 1.1.9 2 2 2h16c1.1 0 2-.9 2-2V8c0-1.1-.9-2-2-2H10L8 4H4z" fill="#FFF"/><rect fill="#FF4F00" x="13" y="11" width="13" height="13" rx="1"/><path d="M16.413 19.075c0 1.963 1.462 3.075 3.05 3.075 1.612 0 2.962-1.075 2.962-2.662 0-1.113-.613-1.75-1.4-2.063.7-.3 1.188-.925 1.188-1.925 0-1.45-1.276-2.4-2.776-2.4-1.587 0-2.725 1.113-2.725 2.738h1.438c0-.863.35-1.45 1.388-1.45.724 0 1.237.374 1.237 1.112 0 .75-.313 1.275-1.35 1.275h-.6v1.275h.588c1.187 0 1.575.625 1.575 1.45 0 .712-.55 1.363-1.463 1.363-.925 0-1.675-.65-1.675-1.788h-1.438z" fill="#FFF"/></g></svg>