<svg width="24" height="20" viewBox="0 0 24 20" xmlns="http://www.w3.org/2000/svg"><title>kansio-8</title><g transform="translate(-2 -4)" fill="none" fill-rule="evenodd"><path d="M0 0h24v24H0V0z"/><path d="M4 4c-1.1 0-1.99.9-1.99 2L2 18c0 1.1.9 2 2 2h16c1.1 0 2-.9 2-2V8c0-1.1-.9-2-2-2H10L8 4H4z" fill="#FFF"/><rect fill="#FF4F00" x="13" y="11" width="13" height="13" rx="1"/><path d="M19.688 22.15c1.875 0 2.987-1.275 2.987-2.675 0-.813-.387-1.763-1.275-2.075.788-.35 1.063-1.112 1.063-1.812 0-1.325-1.038-2.488-2.776-2.488-1.75 0-2.787 1.138-2.787 2.488 0 .7.275 1.462 1.063 1.812-.888.313-1.276 1.238-1.276 2.075 0 1.45 1.125 2.675 3 2.675zm0-5.225c-.85 0-1.35-.588-1.35-1.275 0-.675.5-1.263 1.35-1.263.837 0 1.337.6 1.337 1.263 0 .675-.5 1.275-1.337 1.275zm0 3.938c-.976 0-1.563-.638-1.563-1.388 0-.738.55-1.4 1.563-1.4 1 0 1.55.688 1.55 1.4 0 .725-.575 1.387-1.55 1.387z" fill="#FFF"/></g></svg>