<svg width="24" height="20" viewBox="0 0 24 20" xmlns="http://www.w3.org/2000/svg"><title>kansio-9plus</title><g transform="translate(-2 -4)" fill="none" fill-rule="evenodd"><path d="M0 0h24v24H0V0z"/><path d="M4 4c-1.1 0-1.99.9-1.99 2L2 18c0 1.1.9 2 2 2h16c1.1 0 2-.9 2-2V8c0-1.1-.9-2-2-2H10L8 4H4z" fill="#FFF"/><rect fill="#FF4F00" x="9" y="11" width="17" height="13" rx="1"/><path d="M14.588 13.1c-1.875 0-3.088 1.412-3.088 3.063 0 1.774 1.287 3.062 3.275 3.062L12.937 22h1.65l2.5-4.025c.326-.525.563-1.138.563-1.813 0-1.65-1.212-3.062-3.062-3.062zm0 1.287c.987 0 1.624.813 1.624 1.776 0 .962-.637 1.774-1.624 1.774-1 0-1.65-.812-1.65-1.774 0-.963.65-1.776 1.65-1.776zm7.825 6.575V19.05h1.85v-1.213h-1.85v-1.925H21.05v1.925h-1.838v1.213h1.838v1.912h1.363z" fill="#FFF"/></g></svg>