<svg width="24" height="20" viewBox="0 0 24 20" xmlns="http://www.w3.org/2000/svg"><title>kansio-6</title><g transform="translate(-2 -4)" fill="none" fill-rule="evenodd"><path d="M0 0h24v24H0V0z"/><path d="M4 4c-1.1 0-1.99.9-1.99 2L2 18c0 1.1.9 2 2 2h16c1.1 0 2-.9 2-2V8c0-1.1-.9-2-2-2H10L8 4H4z" fill="#FFF"/><rect fill="#FF4F00" x="13" y="11" width="13" height="13" rx="1"/><path d="M19.46 22.15c1.915 0 3.152-1.442 3.152-3.127 0-1.685-1.237-3.127-3.152-3.127-.064 0-.128 0-.19.013l1.875-2.847H19.46l-2.565 4.11c-.332.536-.562 1.174-.562 1.85 0 1.685 1.238 3.127 3.127 3.127zm0-1.315c-1.008 0-1.66-.83-1.66-1.812 0-.983.652-1.812 1.66-1.812 1.02 0 1.685.83 1.685 1.813s-.664 1.812-1.685 1.812z" fill="#FFF"/></g></svg>