<svg width="24" height="20" viewBox="0 0 24 20" xmlns="http://www.w3.org/2000/svg"><title>kansio-5</title><g transform="translate(-2 -4)" fill="none" fill-rule="evenodd"><path d="M0 0h24v24H0V0z"/><path d="M4 4c-1.1 0-1.99.9-1.99 2L2 18c0 1.1.9 2 2 2h16c1.1 0 2-.9 2-2V8c0-1.1-.9-2-2-2H10L8 4H4z" fill="#FFF"/><rect fill="#FF4F00" x="13" y="11" width="13" height="13" rx="1"/><path d="M16.764 18.166h1.478c.334-.68.86-.99 1.516-.99 1.04 0 1.697.836 1.697 1.825 0 .99-.656 1.826-1.697 1.826-1.015 0-1.67-.835-1.67-1.825H16.61c0 1.698 1.246 3.15 3.148 3.15 1.928 0 3.174-1.452 3.174-3.15 0-1.695-.99-3.134-2.917-3.134-.604 0-1.555.257-1.927.95v-2.492h4.138V13h-5.462v5.166z" fill="#FFF"/></g></svg>