<svg width="24" height="20" viewBox="0 0 24 20" xmlns="http://www.w3.org/2000/svg"><title>kansio-9</title><g transform="translate(-2 -4)" fill="none" fill-rule="evenodd"><path d="M0 0h24v24H0V0z"/><path d="M4 4c-1.1 0-1.99.9-1.99 2L2 18c0 1.1.9 2 2 2h16c1.1 0 2-.9 2-2V8c0-1.1-.9-2-2-2H10L8 4H4z" fill="#FFF"/><rect fill="#FF4F00" x="13" y="11" width="13" height="13" rx="1"/><path d="M19.548 13c-1.896 0-3.122 1.428-3.122 3.097 0 1.795 1.302 3.097 3.312 3.097L17.878 22h1.67l2.528-4.07c.33-.53.57-1.15.57-1.833 0-1.67-1.227-3.097-3.098-3.097zm0 1.302c.998 0 1.643.822 1.643 1.795s-.644 1.795-1.642 1.795c-1.01 0-1.67-.822-1.67-1.795s.66-1.795 1.67-1.795z" fill="#FFF"/></g></svg>