<svg width="24" height="20" viewBox="0 0 24 20" xmlns="http://www.w3.org/2000/svg"><title>kansio-2</title><g transform="translate(-2 -4)" fill="none" fill-rule="evenodd"><path d="M0 0h24v24H0V0z"/><path d="M4 4c-1.1 0-1.99.9-1.99 2L2 18c0 1.1.9 2 2 2h16c1.1 0 2-.9 2-2V8c0-1.1-.9-2-2-2H10L8 4H4z" fill="#FFF"/><rect fill="#FF4F00" x="13" y="11" width="13" height="13" rx="1"/><path d="M16.587 22h5.45v-1.288h-3.8c0-.837.226-1.162 1.5-2.075.563-.4 2.35-1.3 2.35-2.912 0-1.75-1.174-2.625-2.687-2.625-1.462 0-2.813.963-2.813 2.738h1.438c0-1.013.613-1.45 1.363-1.45.712 0 1.262.35 1.262 1.2 0 1.062-.962 1.525-1.725 2-1.338.85-2.338 1.637-2.338 4.412z" fill="#FFF"/></g></svg>