<svg xmlns="http://www.w3.org/2000/svg" width="30.88" height="53.75" viewBox="0 0 30.88 53.75"><defs><style>.a{opacity:0.3;}.b{fill:#488cca;}.c{fill:#fff;}.d{fill:#448dcb;}</style></defs><title>neuvola_icons</title><path class="a b" d="M30.14 37.59c0 8.39-6.61 15.25-14.69 15.25S.76 45.98.76 37.59V15.83C.76 7.44 7.37.58 15.45.58s14.69 6.86 14.69 15.25v21.76z"/><path class="c" d="M3.82 15.36a1.74 1.74 0 0 1 2-1.81.81.81 0 0 0 1-.59 8.9 8.9 0 0 1 5.71-6.06 9.47 9.47 0 0 1 2.48-.48h.42a9 9 0 0 1 8.62 6.55.83.83 0 0 0 .92.6h.25a1.84 1.84 0 0 1 0 3.67h-.25a.83.83 0 0 0-.92.6 9 9 0 0 1-8.61 6.52 8.7 8.7 0 0 1-8.5-6.27 1.27 1.27 0 0 0-1.17-.72 1.78 1.78 0 0 1-1.95-2.01z"/><path class="b" d="M24.48 12.18a9.61 9.61 0 0 0-9-6.43h-.54a9.61 9.61 0 0 0-8.52 6.41 3.16 3.16 0 0 0 0 6.31 9.57 9.57 0 0 0 18.08 0 3.16 3.16 0 0 0-.02-6.29zm-.08 5l-.85.06-.28.8a8.29 8.29 0 0 1-15.66 0l-.28-.8-.85-.06a1.88 1.88 0 0 1 0-3.75l.85-.06.28-.8a8.38 8.38 0 0 1 7.07-5.52 1.14 1.14 0 0 1 1 .86 1 1 0 0 1-.38 1.07 2.63 2.63 0 0 1-2.16.13.643.643 0 1 0-.46 1.2 4.45 4.45 0 0 0 1.49.26 3.3 3.3 0 0 0 1.83-.52 2.21 2.21 0 0 0 .91-2.48 2.5 2.5 0 0 0-.18-.46 8.31 8.31 0 0 1 6.51 5.46l.28.8.85.06a1.89 1.89 0 0 1 .03 3.78z"/><path class="b" d="M15.44 19.16a3.87 3.87 0 0 0 2.7-1 .707.707 0 0 0-1-1 3 3 0 0 1-3.45 0 .707.707 0 1 0-1 1 3.86 3.86 0 0 0 2.7 1zm-2.15-4.6a.62.62 0 0 1-.54-.3 1.13 1.13 0 0 0-.94-.47 1.07 1.07 0 0 0-.92.47.63.63 0 0 1-.85.22.62.62 0 0 1-.23-.84 2.33 2.33 0 0 1 2-1.1 2.37 2.37 0 0 1 2 1.09.63.63 0 0 1-.54.94zm7.24 0a.62.62 0 0 1-.54-.3 1.13 1.13 0 0 0-.94-.47 1.07 1.07 0 0 0-.92.47.63.63 0 0 1-.85.22.62.62 0 0 1-.23-.84 2.33 2.33 0 0 1 2-1.1 2.37 2.37 0 0 1 2 1.09.63.63 0 0 1-.54.94z"/><path class="b" d="M15.44 53.75C6.93 53.75 0 46.57 0 37.75V16C0 7.18 6.93 0 15.44 0s15.44 7.18 15.44 16v21.76c.01 8.81-6.92 15.99-15.44 15.99zm0-52.25C7.75 1.5 1.5 8 1.5 16v21.76c0 8 6.25 14.5 13.94 14.5s13.94-6.5 13.94-14.5V16c.01-8-6.24-14.5-13.94-14.5z"/><path class="d" d="M.653 22.768l.716-1.318 29.25 15.875-.718 1.318zm-.245 6.488l.712-1.32L28.763 42.85l-.712 1.322z"/><path class="d" d="M15.024 29.33L29.4 21.457l.72 1.315-14.376 7.87z"/></svg>