<svg width="28" height="39" viewBox="0 0 28 39" xmlns="http://www.w3.org/2000/svg"><title>savukeaski</title><g fill="none" fill-rule="evenodd"><path stroke="#3C8FDE" stroke-width="2" d="M6 1h4v11H6zM10 5h4v7h-4zM14 5h4v7h-4zM18 5h4v7h-4z"/><path d="M1 7.996C1 7.446 1.445 7 2.008 7h4.03v5.01H21.94V7h4.064c.55 0 .996.438.996.996v29.008c0 .55-.45.996-1.003.996H2.003C1.45 38 1 37.562 1 37.004V7.996z" stroke="#3C8FDE" stroke-width="2"/><path d="M2 8l2.978.023V13H23.01V8.023L26 8v14l-12-4.007L2 22V8z" fill-opacity=".3" fill="#3C8FDE"/></g></svg>